<svg width="70" height="70" viewBox="0 0 70 70" fill="none" xmlns="http://www.w3.org/2000/svg">
<g id="lucide:scan" clip-path="url(#clip0_728_3951)">
<path id="Vector" d="M-85.75 18.0833V32.9167C-85.75 36.8507 -84.1872 40.6236 -81.4054 43.4054C-78.6236 46.1872 -74.8507 47.75 -70.9167 47.75H-56.0833M18.0833 47.75H32.9167C36.8507 47.75 40.6236 46.1872 43.4054 43.4054C46.1872 40.6236 47.75 36.8507 47.75 32.9167V18.0833M47.75 -56.0833V-70.9167C47.75 -74.8507 46.1872 -78.6236 43.4054 -81.4054C40.6236 -84.1872 36.8507 -85.75 32.9167 -85.75H18.0833M-56.0833 -85.75H-70.9167C-74.8507 -85.75 -78.6236 -84.1872 -81.4054 -81.4054C-84.1872 -78.6236 -85.75 -74.8507 -85.75 -70.9167V-56.0833" stroke="#0071DC" stroke-width="14.8333" stroke-linecap="round" stroke-linejoin="round"/>
</g>
<defs>
<clipPath id="clip0_728_3951">
<rect width="70" height="70" fill="white" transform="matrix(1 0 0 -1 0 70)"/>
</clipPath>
</defs>
</svg>
