<svg width="70" height="70" viewBox="0 0 70 70" fill="none" xmlns="http://www.w3.org/2000/svg">
<g id="lucide:scan" clip-path="url(#clip0_728_3947)">
<path id="Vector" d="M155.75 51.9167V37.0833C155.75 33.1493 154.187 29.3764 151.405 26.5946C148.624 23.8128 144.851 22.25 140.917 22.25H126.083M51.9167 22.25H37.0833C33.1493 22.25 29.3764 23.8128 26.5946 26.5946C23.8128 29.3764 22.25 33.1493 22.25 37.0833V51.9167M22.25 126.083V140.917C22.25 144.851 23.8128 148.624 26.5946 151.405C29.3764 154.187 33.1493 155.75 37.0833 155.75H51.9167M126.083 155.75H140.917C144.851 155.75 148.624 154.187 151.405 151.405C154.187 148.624 155.75 144.851 155.75 140.917V126.083" stroke="#0071DC" stroke-width="14.8333" stroke-linecap="round" stroke-linejoin="round"/>
</g>
<defs>
<clipPath id="clip0_728_3947">
<rect width="70" height="70" fill="white" transform="matrix(-1 0 0 1 70 0)"/>
</clipPath>
</defs>
</svg>
