<svg width="70" height="70" viewBox="0 0 70 70" fill="none" xmlns="http://www.w3.org/2000/svg">
<g id="lucide:scan" clip-path="url(#clip0_728_3945)">
<path id="Vector" d="M-85.75 51.9167V37.0833C-85.75 33.1493 -84.1872 29.3764 -81.4054 26.5946C-78.6236 23.8128 -74.8507 22.25 -70.9167 22.25H-56.0833M18.0833 22.25H32.9167C36.8507 22.25 40.6236 23.8128 43.4054 26.5946C46.1872 29.3764 47.75 33.1493 47.75 37.0833V51.9167M47.75 126.083V140.917C47.75 144.851 46.1872 148.624 43.4054 151.405C40.6236 154.187 36.8507 155.75 32.9167 155.75H18.0833M-56.0833 155.75H-70.9167C-74.8507 155.75 -78.6236 154.187 -81.4054 151.405C-84.1872 148.624 -85.75 144.851 -85.75 140.917V126.083" stroke="#0071DC" stroke-width="14.8333" stroke-linecap="round" stroke-linejoin="round"/>
</g>
<defs>
<clipPath id="clip0_728_3945">
<rect width="70" height="70" fill="white"/>
</clipPath>
</defs>
</svg>
