<svg width="70" height="70" viewBox="0 0 70 70" fill="none" xmlns="http://www.w3.org/2000/svg">
<g id="lucide:scan" clip-path="url(#clip0_728_3949)">
<path id="Vector" d="M155.75 18.0833V32.9167C155.75 36.8507 154.187 40.6236 151.405 43.4054C148.624 46.1872 144.851 47.75 140.917 47.75H126.083M51.9167 47.75H37.0833C33.1493 47.75 29.3764 46.1872 26.5946 43.4054C23.8128 40.6236 22.25 36.8507 22.25 32.9167V18.0833M22.25 -56.0833V-70.9167C22.25 -74.8507 23.8128 -78.6236 26.5946 -81.4054C29.3764 -84.1872 33.1493 -85.75 37.0833 -85.75H51.9167M126.083 -85.75H140.917C144.851 -85.75 148.624 -84.1872 151.405 -81.4054C154.187 -78.6236 155.75 -74.8507 155.75 -70.9167V-56.0833" stroke="#0071DC" stroke-width="14.8333" stroke-linecap="round" stroke-linejoin="round"/>
</g>
<defs>
<clipPath id="clip0_728_3949">
<rect width="70" height="70" fill="white" transform="matrix(-1 0 0 -1 70 70)"/>
</clipPath>
</defs>
</svg>
