<svg width="260" height="55" viewBox="0 0 260 55" fill="none" xmlns="http://www.w3.org/2000/svg">
<path d="M14.2962 27.7273C14.2962 29.2803 14.0121 30.6155 13.444 31.733C12.8758 32.8456 12.0969 33.7027 11.1073 34.304C10.1225 34.9006 9.00267 35.1989 7.74794 35.1989C6.48847 35.1989 5.36394 34.9006 4.37436 34.304C3.38951 33.7027 2.61299 32.8433 2.04481 31.7259C1.47663 30.6084 1.19254 29.2756 1.19254 27.7273C1.19254 26.1742 1.47663 24.8414 2.04481 23.7287C2.61299 22.6113 3.38951 21.7543 4.37436 21.1577C5.36394 20.5563 6.48847 20.2557 7.74794 20.2557C9.00267 20.2557 10.1225 20.5563 11.1073 21.1577C12.0969 21.7543 12.8758 22.6113 13.444 23.7287C14.0121 24.8414 14.2962 26.1742 14.2962 27.7273ZM12.1229 27.7273C12.1229 26.5436 11.9312 25.5469 11.5477 24.7372C11.1689 23.9228 10.648 23.3073 9.98515 22.8906C9.32701 22.4692 8.58127 22.2585 7.74794 22.2585C6.90987 22.2585 6.16176 22.4692 5.50362 22.8906C4.84548 23.3073 4.32464 23.9228 3.94112 24.7372C3.56233 25.5469 3.37294 26.5436 3.37294 27.7273C3.37294 28.911 3.56233 29.91 3.94112 30.7244C4.32464 31.5341 4.84548 32.1496 5.50362 32.571C6.16176 32.9877 6.90987 33.196 7.74794 33.196C8.58127 33.196 9.32701 32.9877 9.98515 32.571C10.648 32.1496 11.1689 31.5341 11.5477 30.7244C11.9312 29.91 12.1229 28.911 12.1229 27.7273ZM16.5419 35V24.0909H18.5945V25.8239H18.7081C18.907 25.2367 19.2574 24.7751 19.7593 24.4389C20.2659 24.098 20.8388 23.9276 21.478 23.9276C21.6106 23.9276 21.7668 23.9323 21.9468 23.9418C22.1314 23.9512 22.2758 23.9631 22.38 23.9773V26.0085C22.2948 25.9848 22.1433 25.9588 21.9255 25.9304C21.7076 25.8973 21.4898 25.8807 21.272 25.8807C20.7701 25.8807 20.3227 25.9872 19.9297 26.2003C19.5415 26.4086 19.2337 26.6998 19.0064 27.0739C18.7791 27.4432 18.6655 27.8646 18.6655 28.3381V35H16.5419ZM37.0454 26.7543L35.1207 27.0952C35.0402 26.849 34.9123 26.6146 34.7372 26.392C34.5667 26.1695 34.3347 25.9872 34.0411 25.8452C33.7476 25.7031 33.3806 25.6321 32.9403 25.6321C32.339 25.6321 31.8371 25.767 31.4346 26.0369C31.0321 26.3021 30.8309 26.6454 30.8309 27.0668C30.8309 27.4313 30.9659 27.7249 31.2357 27.9474C31.5056 28.17 31.9412 28.3523 32.5426 28.4943L34.2755 28.892C35.2793 29.1241 36.0274 29.4815 36.5198 29.9645C37.0123 30.4474 37.2585 31.0748 37.2585 31.8466C37.2585 32.5 37.0691 33.0824 36.6903 33.5938C36.3162 34.1004 35.793 34.4981 35.1207 34.7869C34.4531 35.0758 33.6789 35.2202 32.7982 35.2202C31.5766 35.2202 30.58 34.9598 29.8082 34.4389C29.0364 33.9134 28.5629 33.1676 28.3877 32.2017L30.4403 31.8892C30.5681 32.4242 30.8309 32.8291 31.2286 33.1037C31.6264 33.3736 32.1448 33.5085 32.784 33.5085C33.4801 33.5085 34.0364 33.3641 34.4531 33.0753C34.8697 32.7817 35.0781 32.4242 35.0781 32.0028C35.0781 31.6619 34.9502 31.3755 34.6945 31.1435C34.4436 30.9115 34.0577 30.7363 33.5369 30.6179L31.6903 30.2131C30.6723 29.9811 29.9194 29.6117 29.4318 29.1051C28.9488 28.5985 28.7073 27.9569 28.7073 27.1804C28.7073 26.5365 28.8873 25.973 29.2471 25.4901C29.6069 25.0071 30.1041 24.6307 30.7386 24.3608C31.373 24.0862 32.0998 23.9489 32.919 23.9489C34.098 23.9489 35.026 24.2045 35.7031 24.7159C36.3801 25.2225 36.8276 25.902 37.0454 26.7543ZM43.975 35.2202C42.9002 35.2202 41.9746 34.9905 41.1981 34.5312C40.4263 34.0672 39.8297 33.4162 39.4083 32.5781C38.9916 31.7353 38.7833 30.7481 38.7833 29.6165C38.7833 28.4991 38.9916 27.5142 39.4083 26.6619C39.8297 25.8097 40.4168 25.1444 41.1696 24.6662C41.9272 24.188 42.8126 23.9489 43.8259 23.9489C44.4414 23.9489 45.038 24.0507 45.6157 24.2543C46.1933 24.4579 46.7118 24.7775 47.1711 25.2131C47.6303 25.6487 47.9926 26.2145 48.2577 26.9105C48.5229 27.6018 48.6554 28.4422 48.6554 29.4318V30.1847H39.9836V28.5938H46.5745C46.5745 28.035 46.4608 27.5402 46.2336 27.1094C46.0063 26.6738 45.6867 26.3305 45.2748 26.0795C44.8676 25.8286 44.3893 25.7031 43.8401 25.7031C43.2435 25.7031 42.7227 25.8499 42.2776 26.1435C41.8373 26.4323 41.4963 26.8111 41.2549 27.2798C41.0181 27.7438 40.8998 28.2481 40.8998 28.7926V30.0355C40.8998 30.7647 41.0276 31.3849 41.2833 31.8963C41.5437 32.4077 41.9059 32.7983 42.3699 33.0682C42.8339 33.3333 43.3761 33.4659 43.9963 33.4659C44.3988 33.4659 44.7658 33.4091 45.0972 33.2955C45.4286 33.1771 45.7151 33.0019 45.9566 32.7699C46.1981 32.5379 46.3827 32.2514 46.5106 31.9105L48.5205 32.2727C48.3595 32.8646 48.0707 33.383 47.654 33.8281C47.2421 34.2685 46.7236 34.6117 46.0986 34.858C45.4784 35.0994 44.7705 35.2202 43.975 35.2202ZM53.8663 35.2415C53.175 35.2415 52.55 35.1136 51.9913 34.858C51.4326 34.5975 50.9899 34.2211 50.6632 33.7287C50.3412 33.2363 50.1803 32.6326 50.1803 31.9176C50.1803 31.3021 50.2986 30.7955 50.5354 30.3977C50.7721 30 51.0917 29.6851 51.4942 29.4531C51.8966 29.2211 52.3464 29.0459 52.8436 28.9276C53.3408 28.8092 53.8474 28.7192 54.3635 28.6577C55.0169 28.5819 55.5472 28.5204 55.9544 28.473C56.3616 28.4209 56.6575 28.3381 56.8422 28.2244C57.0268 28.1108 57.1192 27.9261 57.1192 27.6705V27.6207C57.1192 27.0005 56.944 26.5199 56.5936 26.179C56.248 25.8381 55.7319 25.6676 55.0453 25.6676C54.3303 25.6676 53.7669 25.8262 53.355 26.1435C52.9478 26.456 52.666 26.804 52.5098 27.1875L50.5141 26.733C50.7508 26.0701 51.0964 25.535 51.551 25.1278C52.0103 24.7159 52.5382 24.4176 53.1348 24.233C53.7314 24.0436 54.3588 23.9489 55.0169 23.9489C55.4525 23.9489 55.9142 24.0009 56.4018 24.1051C56.8943 24.2045 57.3535 24.3892 57.7797 24.6591C58.2106 24.929 58.5633 25.3149 58.8379 25.8168C59.1125 26.3139 59.2499 26.9602 59.2499 27.7557V35H57.176V33.5085H57.0908C56.9535 33.7831 56.7475 34.053 56.4729 34.3182C56.1982 34.5833 55.8455 34.8035 55.4146 34.9787C54.9838 35.1539 54.4677 35.2415 53.8663 35.2415ZM54.328 33.5369C54.9151 33.5369 55.417 33.4209 55.8337 33.1889C56.2551 32.9569 56.5747 32.6539 56.7925 32.2798C57.015 31.901 57.1263 31.4962 57.1263 31.0653V29.6591C57.0505 29.7348 56.9037 29.8059 56.6859 29.8722C56.4729 29.9337 56.229 29.9882 55.9544 30.0355C55.6798 30.0781 55.4123 30.1184 55.1518 30.1562C54.8914 30.1894 54.6736 30.2178 54.4984 30.2415C54.0865 30.2936 53.7101 30.3812 53.3692 30.5043C53.033 30.6274 52.7631 30.8049 52.5595 31.0369C52.3607 31.2642 52.2612 31.5672 52.2612 31.946C52.2612 32.4716 52.4553 32.8693 52.8436 33.1392C53.2319 33.4044 53.7267 33.5369 54.328 33.5369ZM61.7583 35V24.0909H63.8109V25.8239H63.9245C64.1234 25.2367 64.4738 24.7751 64.9757 24.4389C65.4823 24.098 66.0552 23.9276 66.6944 23.9276C66.827 23.9276 66.9832 23.9323 67.1632 23.9418C67.3478 23.9512 67.4922 23.9631 67.5964 23.9773V26.0085C67.5112 25.9848 67.3597 25.9588 67.1419 25.9304C66.9241 25.8973 66.7063 25.8807 66.4885 25.8807C65.9866 25.8807 65.5391 25.9872 65.1461 26.2003C64.7579 26.4086 64.4501 26.6998 64.2228 27.0739C63.9956 27.4432 63.8819 27.8646 63.8819 28.3381V35H61.7583ZM73.3187 35.2202C72.2628 35.2202 71.3537 34.9811 70.5914 34.5028C69.8338 34.0199 69.2514 33.3546 68.8442 32.5071C68.437 31.6596 68.2334 30.6889 68.2334 29.5952C68.2334 28.4872 68.4418 27.5095 68.8584 26.6619C69.2751 25.8097 69.8622 25.1444 70.6198 24.6662C71.3774 24.188 72.2699 23.9489 73.2974 23.9489C74.126 23.9489 74.8646 24.1027 75.5133 24.4105C76.1619 24.7135 76.6851 25.1397 77.0829 25.6889C77.4853 26.2382 77.7244 26.8797 77.8002 27.6136H75.7334C75.6198 27.1023 75.3594 26.6619 74.9522 26.2926C74.5497 25.9233 74.01 25.7386 73.3329 25.7386C72.741 25.7386 72.2225 25.8949 71.7775 26.2074C71.3371 26.5152 70.9939 26.9555 70.7476 27.5284C70.5014 28.0966 70.3783 28.7689 70.3783 29.5455C70.3783 30.3409 70.4991 31.0275 70.7405 31.6051C70.982 32.1828 71.3229 32.6302 71.7633 32.9474C72.2083 33.2647 72.7315 33.4233 73.3329 33.4233C73.7353 33.4233 74.0999 33.3499 74.4266 33.2031C74.7581 33.0516 75.035 32.8362 75.2576 32.5568C75.4849 32.2775 75.6435 31.9413 75.7334 31.5483H77.8002C77.7244 32.2538 77.4948 32.8835 77.1113 33.4375C76.7278 33.9915 76.214 34.4271 75.5701 34.7443C74.9309 35.0616 74.1804 35.2202 73.3187 35.2202ZM81.8747 28.5227V35H79.7512V20.4545H81.8463V25.8665H81.9813C82.2369 25.2794 82.6276 24.813 83.1531 24.4673C83.6787 24.1217 84.3653 23.9489 85.2128 23.9489C85.9609 23.9489 86.6143 24.1027 87.173 24.4105C87.7365 24.7183 88.1721 25.1776 88.4798 25.7884C88.7923 26.3944 88.9486 27.152 88.9486 28.0611V35H86.825V28.3168C86.825 27.5166 86.619 26.8963 86.2071 26.456C85.7952 26.0109 85.2223 25.7884 84.4884 25.7884C83.9865 25.7884 83.5367 25.8949 83.1389 26.108C82.7459 26.321 82.4358 26.6335 82.2085 27.0455C81.986 27.4527 81.8747 27.9451 81.8747 28.5227ZM101.627 24.0909V25.7955H95.4624V24.0909H101.627ZM97.1527 35V22.8267C97.1527 22.1449 97.3018 21.5791 97.6001 21.1293C97.8984 20.6747 98.2938 20.3362 98.7862 20.1136C99.2786 19.8864 99.8137 19.7727 100.391 19.7727C100.817 19.7727 101.182 19.8082 101.485 19.8793C101.788 19.9455 102.013 20.0071 102.16 20.0639L101.663 21.7827C101.563 21.7543 101.435 21.7211 101.279 21.6832C101.123 21.6406 100.933 21.6193 100.711 21.6193C100.195 21.6193 99.8255 21.7472 99.603 22.0028C99.3852 22.2585 99.2763 22.6278 99.2763 23.1108V35H97.1527ZM107.664 35.2202C106.641 35.2202 105.748 34.9858 104.986 34.517C104.224 34.0483 103.632 33.3925 103.211 32.5497C102.789 31.7069 102.578 30.7221 102.578 29.5952C102.578 28.4635 102.789 27.474 103.211 26.6264C103.632 25.7789 104.224 25.1207 104.986 24.652C105.748 24.1832 106.641 23.9489 107.664 23.9489C108.686 23.9489 109.579 24.1832 110.341 24.652C111.104 25.1207 111.695 25.7789 112.117 26.6264C112.538 27.474 112.749 28.4635 112.749 29.5952C112.749 30.7221 112.538 31.7069 112.117 32.5497C111.695 33.3925 111.104 34.0483 110.341 34.517C109.579 34.9858 108.686 35.2202 107.664 35.2202ZM107.671 33.4375C108.334 33.4375 108.883 33.2623 109.318 32.9119C109.754 32.5616 110.076 32.0952 110.284 31.5128C110.497 30.9304 110.604 30.2888 110.604 29.5881C110.604 28.892 110.497 28.2528 110.284 27.6705C110.076 27.0833 109.754 26.6122 109.318 26.2571C108.883 25.902 108.334 25.7244 107.671 25.7244C107.003 25.7244 106.449 25.902 106.009 26.2571C105.573 26.6122 105.249 27.0833 105.036 27.6705C104.827 28.2528 104.723 28.892 104.723 29.5881C104.723 30.2888 104.827 30.9304 105.036 31.5128C105.249 32.0952 105.573 32.5616 106.009 32.9119C106.449 33.2623 107.003 33.4375 107.671 33.4375ZM114.799 35V24.0909H116.852V25.8239H116.965C117.164 25.2367 117.515 24.7751 118.017 24.4389C118.523 24.098 119.096 23.9276 119.735 23.9276C119.868 23.9276 120.024 23.9323 120.204 23.9418C120.389 23.9512 120.533 23.9631 120.637 23.9773V26.0085C120.552 25.9848 120.401 25.9588 120.183 25.9304C119.965 25.8973 119.747 25.8807 119.529 25.8807C119.027 25.8807 118.58 25.9872 118.187 26.2003C117.799 26.4086 117.491 26.6998 117.264 27.0739C117.036 27.4432 116.923 27.8646 116.923 28.3381V35H114.799ZM127.128 35V24.0909H129.181V25.8239H129.294C129.493 25.2367 129.843 24.7751 130.345 24.4389C130.852 24.098 131.425 23.9276 132.064 23.9276C132.197 23.9276 132.353 23.9323 132.533 23.9418C132.718 23.9512 132.862 23.9631 132.966 23.9773V26.0085C132.881 25.9848 132.729 25.9588 132.512 25.9304C132.294 25.8973 132.076 25.8807 131.858 25.8807C131.356 25.8807 130.909 25.9872 130.516 26.2003C130.128 26.4086 129.82 26.6998 129.593 27.0739C129.365 27.4432 129.252 27.8646 129.252 28.3381V35H127.128ZM138.795 35.2202C137.72 35.2202 136.794 34.9905 136.018 34.5312C135.246 34.0672 134.65 33.4162 134.228 32.5781C133.811 31.7353 133.603 30.7481 133.603 29.6165C133.603 28.4991 133.811 27.5142 134.228 26.6619C134.65 25.8097 135.237 25.1444 135.989 24.6662C136.747 24.188 137.632 23.9489 138.646 23.9489C139.261 23.9489 139.858 24.0507 140.436 24.2543C141.013 24.4579 141.532 24.7775 141.991 25.2131C142.45 25.6487 142.812 26.2145 143.078 26.9105C143.343 27.6018 143.475 28.4422 143.475 29.4318V30.1847H134.803V28.5938H141.394C141.394 28.035 141.281 27.5402 141.053 27.1094C140.826 26.6738 140.507 26.3305 140.095 26.0795C139.687 25.8286 139.209 25.7031 138.66 25.7031C138.063 25.7031 137.543 25.8499 137.097 26.1435C136.657 26.4323 136.316 26.8111 136.075 27.2798C135.838 27.7438 135.72 28.2481 135.72 28.7926V30.0355C135.72 30.7647 135.847 31.3849 136.103 31.8963C136.364 32.4077 136.726 32.7983 137.19 33.0682C137.654 33.3333 138.196 33.4659 138.816 33.4659C139.219 33.4659 139.586 33.4091 139.917 33.2955C140.248 33.1771 140.535 33.0019 140.776 32.7699C141.018 32.5379 141.203 32.2514 141.33 31.9105L143.34 32.2727C143.179 32.8646 142.891 33.383 142.474 33.8281C142.062 34.2685 141.543 34.6117 140.918 34.858C140.298 35.0994 139.59 35.2202 138.795 35.2202ZM150.107 35.2202C149.051 35.2202 148.142 34.9811 147.379 34.5028C146.622 34.0199 146.039 33.3546 145.632 32.5071C145.225 31.6596 145.021 30.6889 145.021 29.5952C145.021 28.4872 145.23 27.5095 145.646 26.6619C146.063 25.8097 146.65 25.1444 147.408 24.6662C148.165 24.188 149.058 23.9489 150.085 23.9489C150.914 23.9489 151.653 24.1027 152.301 24.4105C152.95 24.7135 153.473 25.1397 153.871 25.6889C154.273 26.2382 154.512 26.8797 154.588 27.6136H152.521C152.408 27.1023 152.147 26.6619 151.74 26.2926C151.338 25.9233 150.798 25.7386 150.121 25.7386C149.529 25.7386 149.011 25.8949 148.565 26.2074C148.125 26.5152 147.782 26.9555 147.536 27.5284C147.289 28.0966 147.166 28.7689 147.166 29.5455C147.166 30.3409 147.287 31.0275 147.529 31.6051C147.77 32.1828 148.111 32.6302 148.551 32.9474C148.996 33.2647 149.52 33.4233 150.121 33.4233C150.523 33.4233 150.888 33.3499 151.215 33.2031C151.546 33.0516 151.823 32.8362 152.046 32.5568C152.273 32.2775 152.431 31.9413 152.521 31.5483H154.588C154.512 32.2538 154.283 32.8835 153.899 33.4375C153.516 33.9915 153.002 34.4271 152.358 34.7443C151.719 35.0616 150.968 35.2202 150.107 35.2202ZM156.539 35V24.0909H158.663V35H156.539ZM157.612 22.4077C157.242 22.4077 156.925 22.2846 156.66 22.0384C156.399 21.7874 156.269 21.4891 156.269 21.1435C156.269 20.7931 156.399 20.4948 156.66 20.2486C156.925 19.9976 157.242 19.8722 157.612 19.8722C157.981 19.8722 158.296 19.9976 158.556 20.2486C158.821 20.4948 158.954 20.7931 158.954 21.1435C158.954 21.4891 158.821 21.7874 158.556 22.0384C158.296 22.2846 157.981 22.4077 157.612 22.4077ZM161.2 39.0909V24.0909H163.273V25.8594H163.451C163.574 25.6321 163.752 25.3693 163.984 25.071C164.216 24.7727 164.538 24.5123 164.95 24.2898C165.362 24.0625 165.906 23.9489 166.583 23.9489C167.464 23.9489 168.25 24.1714 168.941 24.6165C169.632 25.0616 170.174 25.7031 170.567 26.5412C170.965 27.3793 171.164 28.3878 171.164 29.5668C171.164 30.7457 170.968 31.7566 170.575 32.5994C170.182 33.4375 169.642 34.0838 168.955 34.5384C168.269 34.9882 167.485 35.2131 166.604 35.2131C165.942 35.2131 165.399 35.1018 164.978 34.8793C164.561 34.6567 164.235 34.3963 163.998 34.098C163.761 33.7997 163.579 33.5346 163.451 33.3026H163.323V39.0909H161.2ZM163.281 29.5455C163.281 30.3125 163.392 30.9848 163.614 31.5625C163.837 32.1402 164.159 32.5923 164.58 32.919C165.002 33.241 165.518 33.402 166.129 33.402C166.763 33.402 167.293 33.2339 167.719 32.8977C168.146 32.5568 168.468 32.0952 168.685 31.5128C168.908 30.9304 169.019 30.2746 169.019 29.5455C169.019 28.8258 168.91 28.1795 168.692 27.6065C168.479 27.0336 168.157 26.5814 167.727 26.25C167.3 25.9186 166.768 25.7528 166.129 25.7528C165.513 25.7528 164.992 25.9115 164.566 26.2287C164.145 26.5459 163.825 26.9886 163.607 27.5568C163.389 28.125 163.281 28.7879 163.281 29.5455ZM177.925 35.2202C176.85 35.2202 175.925 34.9905 175.148 34.5312C174.376 34.0672 173.78 33.4162 173.358 32.5781C172.942 31.7353 172.733 30.7481 172.733 29.6165C172.733 28.4991 172.942 27.5142 173.358 26.6619C173.78 25.8097 174.367 25.1444 175.12 24.6662C175.877 24.188 176.763 23.9489 177.776 23.9489C178.391 23.9489 178.988 24.0507 179.566 24.2543C180.143 24.4579 180.662 24.7775 181.121 25.2131C181.58 25.6487 181.943 26.2145 182.208 26.9105C182.473 27.6018 182.605 28.4422 182.605 29.4318V30.1847H173.934V28.5938H180.524C180.524 28.035 180.411 27.5402 180.184 27.1094C179.956 26.6738 179.637 26.3305 179.225 26.0795C178.818 25.8286 178.339 25.7031 177.79 25.7031C177.194 25.7031 176.673 25.8499 176.228 26.1435C175.787 26.4323 175.446 26.8111 175.205 27.2798C174.968 27.7438 174.85 28.2481 174.85 28.7926V30.0355C174.85 30.7647 174.978 31.3849 175.233 31.8963C175.494 32.4077 175.856 32.7983 176.32 33.0682C176.784 33.3333 177.326 33.4659 177.946 33.4659C178.349 33.4659 178.716 33.4091 179.047 33.2955C179.379 33.1771 179.665 33.0019 179.907 32.7699C180.148 32.5379 180.333 32.2514 180.461 31.9105L182.47 32.2727C182.31 32.8646 182.021 33.383 181.604 33.8281C181.192 34.2685 180.674 34.6117 180.049 34.858C179.428 35.0994 178.72 35.2202 177.925 35.2202ZM192.816 26.7543L190.892 27.0952C190.811 26.849 190.683 26.6146 190.508 26.392C190.338 26.1695 190.106 25.9872 189.812 25.8452C189.519 25.7031 189.152 25.6321 188.711 25.6321C188.11 25.6321 187.608 25.767 187.206 26.0369C186.803 26.3021 186.602 26.6454 186.602 27.0668C186.602 27.4313 186.737 27.7249 187.007 27.9474C187.277 28.17 187.712 28.3523 188.313 28.4943L190.046 28.892C191.05 29.1241 191.798 29.4815 192.291 29.9645C192.783 30.4474 193.029 31.0748 193.029 31.8466C193.029 32.5 192.84 33.0824 192.461 33.5938C192.087 34.1004 191.564 34.4981 190.892 34.7869C190.224 35.0758 189.45 35.2202 188.569 35.2202C187.348 35.2202 186.351 34.9598 185.579 34.4389C184.807 33.9134 184.334 33.1676 184.159 32.2017L186.211 31.8892C186.339 32.4242 186.602 32.8291 187 33.1037C187.397 33.3736 187.916 33.5085 188.555 33.5085C189.251 33.5085 189.807 33.3641 190.224 33.0753C190.641 32.7817 190.849 32.4242 190.849 32.0028C190.849 31.6619 190.721 31.3755 190.465 31.1435C190.215 30.9115 189.829 30.7363 189.308 30.6179L187.461 30.2131C186.443 29.9811 185.69 29.6117 185.203 29.1051C184.72 28.5985 184.478 27.9569 184.478 27.1804C184.478 26.5365 184.658 25.973 185.018 25.4901C185.378 25.0071 185.875 24.6307 186.51 24.3608C187.144 24.0862 187.871 23.9489 188.69 23.9489C189.869 23.9489 190.797 24.2045 191.474 24.7159C192.151 25.2225 192.599 25.902 192.816 26.7543Z" fill="#1A1A1A"/>
<rect x="210" y="1" width="48.4167" height="53" rx="10" stroke="#0071DC" stroke-width="2"/>
<path d="M230.875 33C228.604 33 226.683 32.2133 225.11 30.64C223.538 29.0667 222.751 27.145 222.75 24.875C222.749 22.605 223.536 20.6833 225.11 19.11C226.684 17.5367 228.606 16.75 230.875 16.75C233.144 16.75 235.066 17.5367 236.641 19.11C238.216 20.6833 239.003 22.605 239 24.875C239 25.7917 238.854 26.6562 238.563 27.4688C238.271 28.2812 237.875 29 237.375 29.625L244.375 36.625C244.604 36.8542 244.719 37.1458 244.719 37.5C244.719 37.8542 244.604 38.1458 244.375 38.375C244.146 38.6042 243.854 38.7188 243.5 38.7188C243.146 38.7188 242.854 38.6042 242.625 38.375L235.625 31.375C235 31.875 234.281 32.2708 233.469 32.5625C232.656 32.8542 231.792 33 230.875 33ZM230.875 30.5C232.438 30.5 233.766 29.9533 234.86 28.86C235.954 27.7667 236.501 26.4383 236.5 24.875C236.499 23.3117 235.953 21.9838 234.86 20.8913C233.768 19.7988 232.439 19.2517 230.875 19.25C229.311 19.2483 227.983 19.7954 226.891 20.8913C225.8 21.9871 225.253 23.315 225.25 24.875C225.248 26.435 225.795 27.7633 226.891 28.86C227.988 29.9567 229.316 30.5033 230.875 30.5Z" fill="#0071DC"/>
</svg>
